<svg xmlns="http://www.w3.org/2000/svg" viewBox="0 0 1200 680" width="1200" height="680" style="background:#060b18;font-family:'Segoe UI',Roboto,Helvetica,sans-serif;">
  <defs>
    <linearGradient id="busBgGlow" x1="0%" y1="0%" x2="100%" y2="100%">
      <stop offset="0%" stop-color="#0a1226"/>
      <stop offset="50%" stop-color="#040814"/>
      <stop offset="100%" stop-color="#080e1e"/>
    </linearGradient>
    <linearGradient id="busAccentGrad" x1="0%" y1="0%" x2="100%" y2="0%">
      <stop offset="0%" stop-color="#3b82f6"/>
      <stop offset="50%" stop-color="#06b6d4"/>
      <stop offset="100%" stop-color="#10b981"/>
    </linearGradient>
    <linearGradient id="busCardGrad" x1="0%" y1="0%" x2="0%" y2="100%">
      <stop offset="0%" stop-color="#0f1b36" stop-opacity="0.95"/>
      <stop offset="100%" stop-color="#091124" stop-opacity="0.98"/>
    </linearGradient>
    <linearGradient id="seatBookedGrad" x1="0%" y1="0%" x2="100%" y2="100%">
      <stop offset="0%" stop-color="#ef4444"/>
      <stop offset="100%" stop-color="#b91c1c"/>
    </linearGradient>
    <linearGradient id="seatSelectedGrad" x1="0%" y1="0%" x2="100%" y2="100%">
      <stop offset="0%" stop-color="#06b6d4"/>
      <stop offset="100%" stop-color="#0284c7"/>
    </linearGradient>
    <linearGradient id="seatAvailGrad" x1="0%" y1="0%" x2="100%" y2="100%">
      <stop offset="0%" stop-color="#1e293b"/>
      <stop offset="100%" stop-color="#0f172a"/>
    </linearGradient>
    <linearGradient id="ticketGrad" x1="0%" y1="0%" x2="100%" y2="100%">
      <stop offset="0%" stop-color="#1e293b"/>
      <stop offset="100%" stop-color="#0f172a"/>
    </linearGradient>
    <filter id="busShadow" x="-10%" y="-10%" width="120%" height="120%">
      <feDropShadow dx="0" dy="12" stdDeviation="20" flood-color="#000000" flood-opacity="0.6"/>
    </filter>
  </defs>

  <!-- Ambient background glow -->
  <rect width="1200" height="680" fill="url(#busBgGlow)"/>
  <circle cx="220" cy="180" r="280" fill="#2563eb" opacity="0.14" filter="blur(80px)"/>
  <circle cx="980" cy="480" r="320" fill="#06b6d4" opacity="0.12" filter="blur(90px)"/>

  <!-- Desktop App Window Frame -->
  <rect x="50" y="40" width="1100" height="600" rx="16" fill="url(#busCardGrad)" stroke="#1e293b" stroke-width="1.5" filter="url(#busShadow)"/>

  <!-- Window Titlebar -->
  <rect x="50" y="40" width="1100" height="48" rx="16" fill="#0d172e"/>
  <rect x="50" y="72" width="1100" height="16" fill="#0d172e"/>
  <line x1="50" y1="88" x2="1150" y2="88" stroke="#1e293b" stroke-width="1"/>

  <!-- Window controls -->
  <circle cx="80" cy="64" r="6" fill="#ef4444"/>
  <circle cx="100" cy="64" r="6" fill="#f59e0b"/>
  <circle cx="120" cy="64" r="6" fill="#10b981"/>

  <!-- App Title in titlebar -->
  <text x="600" y="68" fill="#94a3b8" font-size="13" font-weight="600" text-anchor="middle" letter-spacing="1">BUS BOOKING MANAGEMENT SYSTEM • JAVA OOP / JDBC / MYSQL</text>
  <rect x="980" y="55" width="140" height="20" rx="10" fill="#10b981" fill-opacity="0.15" stroke="#10b981" stroke-width="1"/>
  <text x="1050" y="69" fill="#10b981" font-size="10" font-weight="700" text-anchor="middle">JDBC: CONNECTED</text>

  <!-- Left Sidebar (Route & Database Navigation) -->
  <rect x="50" y="88" width="220" height="552" fill="#091224"/>
  <line x1="270" y1="88" x2="270" y2="640" stroke="#1e293b" stroke-width="1"/>

  <!-- Admin / Operator Badge -->
  <g transform="translate(65, 105)">
    <circle cx="25" cy="25" r="20" fill="url(#busAccentGrad)"/>
    <text x="25" y="31" fill="#ffffff" font-size="14" font-weight="bold" text-anchor="middle">☕</text>
    <text x="60" y="22" fill="#f8fafc" font-size="13" font-weight="700">Java Backend</text>
    <text x="60" y="37" fill="#38bdf8" font-size="10" font-weight="600">MySQL Server :3306</text>
  </g>

  <!-- Sidebar Nav Links -->
  <g transform="translate(65, 175)">
    <!-- Active: Seat Reservation -->
    <rect x="0" y="0" width="190" height="36" rx="8" fill="#1e293b" stroke="#38bdf8" stroke-width="1" stroke-opacity="0.4"/>
    <text x="15" y="23" fill="#38bdf8" font-size="12" font-weight="600">💺 Seat Reservation</text>

    <!-- Nav 2: Route Management -->
    <rect x="0" y="44" width="190" height="36" rx="8" fill="transparent"/>
    <text x="15" y="67" fill="#94a3b8" font-size="12" font-weight="500">🛣️ Routes &amp; Schedules</text>

    <!-- Nav 3: Passenger Log -->
    <rect x="0" y="88" width="190" height="36" rx="8" fill="transparent"/>
    <text x="15" y="111" fill="#94a3b8" font-size="12" font-weight="500">👥 Passenger Records</text>

    <!-- Nav 4: SQL Transactions -->
    <rect x="0" y="132" width="190" height="36" rx="8" fill="transparent"/>
    <text x="15" y="155" fill="#94a3b8" font-size="12" font-weight="500">⚡ JDBC Transactions</text>

    <!-- Nav 5: Ticket Generator -->
    <rect x="0" y="176" width="190" height="36" rx="8" fill="transparent"/>
    <text x="15" y="199" fill="#94a3b8" font-size="12" font-weight="500">🎫 Ticket Generation</text>
  </g>

  <!-- Schema Box in Sidebar -->
  <g transform="translate(65, 410)">
    <rect x="0" y="0" width="190" height="205" rx="10" fill="#0d182e" stroke="#1e293b" stroke-width="1"/>
    <text x="14" y="24" fill="#38bdf8" font-size="11" font-weight="700" letter-spacing="0.5">RELATIONAL SCHEMA</text>
    
    <text x="14" y="48" fill="#e2e8f0" font-size="10" font-weight="600">📄 tbl_buses</text>
    <text x="24" y="64" fill="#64748b" font-size="9">bus_no (PK), total_seats</text>

    <text x="14" y="86" fill="#e2e8f0" font-size="10" font-weight="600">📄 tbl_routes</text>
    <text x="24" y="102" fill="#64748b" font-size="9">route_id (PK), origin, dest</text>

    <text x="14" y="124" fill="#e2e8f0" font-size="10" font-weight="600">📄 tbl_passengers</text>
    <text x="24" y="140" fill="#64748b" font-size="9">passenger_id (PK), contact</text>

    <text x="14" y="162" fill="#e2e8f0" font-size="10" font-weight="600">📄 tbl_reservations</text>
    <text x="24" y="178" fill="#64748b" font-size="9">ticket_id (PK), seat_no (UK)</text>
    <text x="24" y="194" fill="#10b981" font-size="9">✓ Zero Collision Constraint</text>
  </g>

  <!-- MAIN VIEW PANEL (Center + Right) -->
  <!-- Top Stat Cards -->
  <g transform="translate(290, 105)">
    <!-- Card 1 -->
    <rect x="0" y="0" width="180" height="65" rx="10" fill="#0e1a34" stroke="#1e293b" stroke-width="1"/>
    <text x="14" y="24" fill="#94a3b8" font-size="10" font-weight="600">ROUTE SELECTED</text>
    <text x="14" y="48" fill="#f8fafc" font-size="14" font-weight="bold">CHN ➔ BLR (AC-EXP)</text>

    <!-- Card 2 -->
    <rect x="195" y="0" width="160" height="65" rx="10" fill="#0e1a34" stroke="#1e293b" stroke-width="1"/>
    <text x="14" y="24" fill="#94a3b8" font-size="10" font-weight="600">TOTAL CAPACITY</text>
    <text x="14" y="48" fill="#38bdf8" font-size="15" font-weight="bold">36 Seats (2x2)</text>

    <!-- Card 3 -->
    <rect x="370" y="0" width="150" height="65" rx="10" fill="#0e1a34" stroke="#1e293b" stroke-width="1"/>
    <text x="14" y="24" fill="#94a3b8" font-size="10" font-weight="600">AVAILABLE SEATS</text>
    <text x="14" y="48" fill="#10b981" font-size="15" font-weight="bold">14 Available</text>

    <!-- Card 4 -->
    <rect x="535" y="0" width="165" height="65" rx="10" fill="#0e1a34" stroke="#1e293b" stroke-width="1"/>
    <text x="14" y="24" fill="#94a3b8" font-size="10" font-weight="600">ACID INTEGRITY</text>
    <text x="14" y="48" fill="#a855f7" font-size="13" font-weight="bold">JDBC Auto-Commit: OFF</text>
  </g>

  <!-- Interactive Bus Coach Layout (Center) -->
  <g transform="translate(290, 185)">
    <rect x="0" y="0" width="460" height="260" rx="14" fill="#0b152b" stroke="#1e293b" stroke-width="1.5"/>
    
    <!-- Coach Header -->
    <text x="20" y="28" fill="#f8fafc" font-size="13" font-weight="700">BUS INTERIOR SEAT ALLOCATION MATRIX</text>
    <text x="350" y="28" fill="#64748b" font-size="10" font-weight="600">DRIVER CAB ➔</text>

    <!-- Legend -->
    <g transform="translate(20, 42)">
      <rect x="0" y="0" width="12" height="12" rx="3" fill="#1e293b" stroke="#334155"/>
      <text x="18" y="10" fill="#94a3b8" font-size="10">Available</text>

      <rect x="90" y="0" width="12" height="12" rx="3" fill="url(#seatBookedGrad)"/>
      <text x="108" y="10" fill="#94a3b8" font-size="10">Reserved</text>

      <rect x="185" y="0" width="12" height="12" rx="3" fill="url(#seatSelectedGrad)"/>
      <text x="203" y="10" fill="#38bdf8" font-size="10" font-weight="600">Selected (#14)</text>
    </g>

    <!-- Bus Seats Grid (Row A, Row B, Aisle, Row C, Row D) -->
    <!-- Col 1 -->
    <rect x="25" y="70" width="36" height="32" rx="6" fill="url(#seatBookedGrad)"/>
    <text x="43" y="90" fill="#fff" font-size="10" font-weight="bold" text-anchor="middle">01</text>
    <rect x="25" y="110" width="36" height="32" rx="6" fill="url(#seatBookedGrad)"/>
    <text x="43" y="130" fill="#fff" font-size="10" font-weight="bold" text-anchor="middle">02</text>
    <rect x="25" y="170" width="36" height="32" rx="6" fill="#1e293b" stroke="#334155"/>
    <text x="43" y="190" fill="#94a3b8" font-size="10" text-anchor="middle">03</text>
    <rect x="25" y="210" width="36" height="32" rx="6" fill="#1e293b" stroke="#334155"/>
    <text x="43" y="230" fill="#94a3b8" font-size="10" text-anchor="middle">04</text>

    <!-- Col 2 -->
    <rect x="75" y="70" width="36" height="32" rx="6" fill="#1e293b" stroke="#334155"/>
    <text x="93" y="90" fill="#94a3b8" font-size="10" text-anchor="middle">05</text>
    <rect x="75" y="110" width="36" height="32" rx="6" fill="url(#seatBookedGrad)"/>
    <text x="93" y="130" fill="#fff" font-size="10" font-weight="bold" text-anchor="middle">06</text>
    <rect x="75" y="170" width="36" height="32" rx="6" fill="url(#seatBookedGrad)"/>
    <text x="93" y="190" fill="#fff" font-size="10" font-weight="bold" text-anchor="middle">07</text>
    <rect x="75" y="210" width="36" height="32" rx="6" fill="#1e293b" stroke="#334155"/>
    <text x="93" y="230" fill="#94a3b8" font-size="10" text-anchor="middle">08</text>

    <!-- Col 3 -->
    <rect x="125" y="70" width="36" height="32" rx="6" fill="url(#seatBookedGrad)"/>
    <text x="143" y="90" fill="#fff" font-size="10" font-weight="bold" text-anchor="middle">09</text>
    <rect x="125" y="110" width="36" height="32" rx="6" fill="#1e293b" stroke="#334155"/>
    <text x="143" y="130" fill="#94a3b8" font-size="10" text-anchor="middle">10</text>
    <rect x="125" y="170" width="36" height="32" rx="6" fill="#1e293b" stroke="#334155"/>
    <text x="143" y="190" fill="#94a3b8" font-size="10" text-anchor="middle">11</text>
    <rect x="125" y="210" width="36" height="32" rx="6" fill="url(#seatBookedGrad)"/>
    <text x="143" y="230" fill="#fff" font-size="10" font-weight="bold" text-anchor="middle">12</text>

    <!-- Col 4 (Selected Seat 14) -->
    <rect x="175" y="70" width="36" height="32" rx="6" fill="#1e293b" stroke="#334155"/>
    <text x="193" y="90" fill="#94a3b8" font-size="10" text-anchor="middle">13</text>
    
    <!-- Highlighted Active Selected Seat -->
    <rect x="175" y="110" width="36" height="32" rx="6" fill="url(#seatSelectedGrad)" stroke="#38bdf8" stroke-width="2"/>
    <text x="193" y="130" fill="#ffffff" font-size="11" font-weight="bold" text-anchor="middle">14</text>
    <!-- Tooltip pointer -->
    <polygon points="193,105 188,98 198,98" fill="#06b6d4"/>
    <rect x="145" y="76" width="96" height="22" rx="5" fill="#082f49" stroke="#38bdf8" stroke-width="1"/>
    <text x="193" y="91" fill="#38bdf8" font-size="9" font-weight="700" text-anchor="middle">WINDOW • ACTIVE</text>

    <rect x="175" y="170" width="36" height="32" rx="6" fill="url(#seatBookedGrad)"/>
    <text x="193" y="190" fill="#fff" font-size="10" font-weight="bold" text-anchor="middle">15</text>
    <rect x="175" y="210" width="36" height="32" rx="6" fill="#1e293b" stroke="#334155"/>
    <text x="193" y="230" fill="#94a3b8" font-size="10" text-anchor="middle">16</text>

    <!-- Col 5 -->
    <rect x="225" y="70" width="36" height="32" rx="6" fill="url(#seatBookedGrad)"/>
    <text x="243" y="90" fill="#fff" font-size="10" font-weight="bold" text-anchor="middle">17</text>
    <rect x="225" y="110" width="36" height="32" rx="6" fill="url(#seatBookedGrad)"/>
    <text x="243" y="130" fill="#fff" font-size="10" font-weight="bold" text-anchor="middle">18</text>
    <rect x="225" y="170" width="36" height="32" rx="6" fill="#1e293b" stroke="#334155"/>
    <text x="243" y="190" fill="#94a3b8" font-size="10" text-anchor="middle">19</text>
    <rect x="225" y="210" width="36" height="32" rx="6" fill="#1e293b" stroke="#334155"/>
    <text x="243" y="230" fill="#94a3b8" font-size="10" text-anchor="middle">20</text>

    <!-- Col 6 -->
    <rect x="275" y="70" width="36" height="32" rx="6" fill="#1e293b" stroke="#334155"/>
    <text x="293" y="90" fill="#94a3b8" font-size="10" text-anchor="middle">21</text>
    <rect x="275" y="110" width="36" height="32" rx="6" fill="#1e293b" stroke="#334155"/>
    <text x="293" y="130" fill="#94a3b8" font-size="10" text-anchor="middle">22</text>
    <rect x="275" y="170" width="36" height="32" rx="6" fill="url(#seatBookedGrad)"/>
    <text x="293" y="190" fill="#fff" font-size="10" font-weight="bold" text-anchor="middle">23</text>
    <rect x="275" y="210" width="36" height="32" rx="6" fill="url(#seatBookedGrad)"/>
    <text x="293" y="230" fill="#fff" font-size="10" font-weight="bold" text-anchor="middle">24</text>

    <!-- Col 7 & 8 -->
    <rect x="325" y="70" width="36" height="32" rx="6" fill="url(#seatBookedGrad)"/>
    <text x="343" y="90" fill="#fff" font-size="10" font-weight="bold" text-anchor="middle">25</text>
    <rect x="325" y="110" width="36" height="32" rx="6" fill="url(#seatBookedGrad)"/>
    <text x="343" y="130" fill="#fff" font-size="10" font-weight="bold" text-anchor="middle">26</text>
    <rect x="325" y="170" width="36" height="32" rx="6" fill="#1e293b" stroke="#334155"/>
    <text x="343" y="190" fill="#94a3b8" font-size="10" text-anchor="middle">27</text>
    <rect x="325" y="210" width="36" height="32" rx="6" fill="#1e293b" stroke="#334155"/>
    <text x="343" y="230" fill="#94a3b8" font-size="10" text-anchor="middle">28</text>

    <!-- Driver Steering Icon -->
    <circle cx="415" cy="90" r="18" fill="#1e293b" stroke="#475569" stroke-width="2"/>
    <line x1="415" y1="72" x2="415" y2="108" stroke="#475569" stroke-width="2"/>
    <line x1="397" y1="90" x2="433" y2="90" stroke="#475569" stroke-width="2"/>
    <text x="415" y="125" fill="#64748b" font-size="9" text-anchor="middle">ENTRY DOOR</text>
  </g>

  <!-- Right: Ticket Confirmation Voucher -->
  <g transform="translate(770, 185)">
    <rect x="0" y="0" width="350" height="260" rx="14" fill="url(#ticketGrad)" stroke="#38bdf8" stroke-width="1.5" stroke-dasharray="4 2"/>
    
    <!-- Ticket Header -->
    <rect x="0" y="0" width="350" height="42" rx="14" fill="#0369a1" fill-opacity="0.3"/>
    <text x="20" y="26" fill="#38bdf8" font-size="12" font-weight="800" letter-spacing="1">CONFIRMED E-TICKET</text>
    <text x="330" y="26" fill="#10b981" font-size="10" font-weight="700" text-anchor="end">ACID COMMITTED</text>

    <!-- Ticket Body Details -->
    <text x="20" y="66" fill="#64748b" font-size="9" font-weight="600">PASSENGER NAME</text>
    <text x="20" y="82" fill="#f8fafc" font-size="13" font-weight="bold">Karthikeyan S</text>

    <text x="190" y="66" fill="#64748b" font-size="9" font-weight="600">TICKET ID / PNR</text>
    <text x="190" y="82" fill="#38bdf8" font-size="13" font-family="'Courier New',monospace" font-weight="bold">TKT-JAVA-8942</text>

    <line x1="20" y1="96" x2="330" y2="96" stroke="#334155" stroke-width="1" stroke-dasharray="3 3"/>

    <text x="20" y="118" fill="#64748b" font-size="9" font-weight="600">ORIGIN ➔ DESTINATION</text>
    <text x="20" y="134" fill="#f8fafc" font-size="12" font-weight="700">Chennai CMBT ➔ Bengaluru</text>

    <text x="190" y="118" fill="#64748b" font-size="9" font-weight="600">SEAT NUMBER</text>
    <text x="190" y="136" fill="#10b981" font-size="15" font-weight="800">#14 (Window)</text>

    <text x="20" y="160" fill="#64748b" font-size="9" font-weight="600">DEPARTURE</text>
    <text x="20" y="176" fill="#f8fafc" font-size="11" font-weight="600">21:30 hrs • Platform 04</text>

    <text x="190" y="160" fill="#64748b" font-size="9" font-weight="600">FARE &amp; STATUS</text>
    <text x="190" y="176" fill="#f8fafc" font-size="11" font-weight="600">₹750 • PAID (Verified)</text>

    <!-- Scannable Barcode simulation -->
    <g transform="translate(20, 195)">
      <rect x="0" y="0" width="310" height="48" rx="6" fill="#0a1224" stroke="#1e293b"/>
      <!-- Barcode stripes -->
      <line x1="15" y1="10" x2="15" y2="38" stroke="#38bdf8" stroke-width="3"/>
      <line x1="22" y1="10" x2="22" y2="38" stroke="#38bdf8" stroke-width="1"/>
      <line x1="26" y1="10" x2="26" y2="38" stroke="#38bdf8" stroke-width="4"/>
      <line x1="34" y1="10" x2="34" y2="38" stroke="#38bdf8" stroke-width="2"/>
      <line x1="40" y1="10" x2="40" y2="38" stroke="#38bdf8" stroke-width="1"/>
      <line x1="45" y1="10" x2="45" y2="38" stroke="#38bdf8" stroke-width="5"/>
      <line x1="55" y1="10" x2="55" y2="38" stroke="#38bdf8" stroke-width="2"/>
      <line x1="62" y1="10" x2="62" y2="38" stroke="#38bdf8" stroke-width="3"/>
      <line x1="70" y1="10" x2="70" y2="38" stroke="#38bdf8" stroke-width="1"/>
      <line x1="75" y1="10" x2="75" y2="38" stroke="#38bdf8" stroke-width="4"/>
      
      <text x="210" y="24" fill="#94a3b8" font-size="9" font-weight="600" text-anchor="middle">SECURITY TOKEN</text>
      <text x="210" y="36" fill="#38bdf8" font-size="10" font-family="'Courier New',monospace" font-weight="bold" text-anchor="middle">SHA-256 VALIDATED</text>
    </g>
  </g>

  <!-- Bottom Panel: Java OOP & JDBC SQL Query Pipeline -->
  <g transform="translate(290, 460)">
    <rect x="0" y="0" width="830" height="155" rx="12" fill="#091326" stroke="#1e293b" stroke-width="1"/>
    
    <!-- Code Window Header -->
    <rect x="0" y="0" width="830" height="28" rx="12" fill="#0d1b33"/>
    <text x="15" y="19" fill="#38bdf8" font-size="11" font-weight="700">JAVA OOP ARCHITECTURE &amp; JDBC DATA ACCESS LAYER</text>
    <text x="730" y="19" fill="#10b981" font-size="10" font-weight="600">ZERO COLLISION ENGINE</text>

    <!-- Code Line 1 -->
    <text x="18" y="52" fill="#f43f5e" font-family="'Courier New',monospace" font-size="11">Connection</text>
    <text x="95" y="52" fill="#f8fafc" font-family="'Courier New',monospace" font-size="11">conn = DatabaseConnection.getConnection();</text>
    <text x="440" y="52" fill="#64748b" font-family="'Courier New',monospace" font-size="10">// Thread-safe MySQL DataSource</text>

    <!-- Code Line 2 -->
    <text x="18" y="74" fill="#f43f5e" font-family="'Courier New',monospace" font-size="11">PreparedStatement</text>
    <text x="155" y="74" fill="#f8fafc" font-family="'Courier New',monospace" font-size="11">pst = conn.prepareStatement(</text>
    <text x="365" y="74" fill="#38bdf8" font-family="'Courier New',monospace" font-size="11">"INSERT INTO tbl_reservations (ticket_id, bus_id, seat_no) VALUES (?, ?, ?)"</text>
    <text x="815" y="74" fill="#f8fafc" font-family="'Courier New',monospace" font-size="11">);</text>

    <!-- Code Line 3 -->
    <text x="18" y="96" fill="#f43f5e" font-family="'Courier New',monospace" font-size="11">pst.setString</text>
    <text x="110" y="96" fill="#f8fafc" font-family="'Courier New',monospace" font-size="11">(1, ticket.getId());  pst.setInt(2, bus.getId());  pst.setInt(3, 14);</text>

    <!-- Code Line 4 -->
    <text x="18" y="118" fill="#a855f7" font-family="'Courier New',monospace" font-size="11">int</text>
    <text x="45" y="118" fill="#f8fafc" font-family="'Courier New',monospace" font-size="11">rows = pst.executeUpdate();</text>
    <text x="270" y="118" fill="#f43f5e" font-family="'Courier New',monospace" font-size="11">conn.commit();</text>
    <text x="390" y="118" fill="#10b981" font-family="'Courier New',monospace" font-size="10">// Transaction committed safely: Seat 14 reserved exclusively</text>

    <!-- Badges Row -->
    <g transform="translate(18, 130)">
      <rect x="0" y="0" width="120" height="18" rx="4" fill="#1e293b"/>
      <text x="60" y="13" fill="#38bdf8" font-size="9" font-weight="700" text-anchor="middle">☕ Java 17+ OOP</text>

      <rect x="130" y="0" width="130" height="18" rx="4" fill="#1e293b"/>
      <text x="195" y="13" fill="#10b981" font-size="9" font-weight="700" text-anchor="middle">🗄️ Relational MySQL</text>

      <rect x="270" y="0" width="115" height="18" rx="4" fill="#1e293b"/>
      <text x="327" y="13" fill="#f59e0b" font-size="9" font-weight="700" text-anchor="middle">⚡ JDBC Driver</text>

      <rect x="395" y="0" width="155" height="18" rx="4" fill="#1e293b"/>
      <text x="472" y="13" fill="#a855f7" font-size="9" font-weight="700" text-anchor="middle">🔒 ACID Transaction Safe</text>

      <rect x="560" y="0" width="145" height="18" rx="4" fill="#1e293b"/>
      <text x="632" y="13" fill="#38bdf8" font-size="9" font-weight="700" text-anchor="middle">✓ Zero Booking Collisions</text>
    </g>
  </g>
</svg>
